<?xml version="1.0" encoding="UTF-8" standalone="no"?>
<!-- Created with Inkscape (http://www.inkscape.org/) -->

<svg
   xmlns:dc="http://purl.org/dc/elements/1.1/"
   xmlns:cc="http://creativecommons.org/ns#"
   xmlns:rdf="http://www.w3.org/1999/02/22-rdf-syntax-ns#"
   xmlns:svg="http://www.w3.org/2000/svg"
   xmlns="http://www.w3.org/2000/svg"
   xmlns:xlink="http://www.w3.org/1999/xlink"
   xmlns:sodipodi="http://sodipodi.sourceforge.net/DTD/sodipodi-0.dtd"
   xmlns:inkscape="http://www.inkscape.org/namespaces/inkscape"
   width="120"
   height="120"
   id="svg23070"
   version="1.1"
   inkscape:version="0.48.2 r9819"
   sodipodi:docname="New document 17">
  <defs
     id="defs23072">
    <linearGradient
       inkscape:collect="always"
       id="linearGradient23915">
      <stop
         style="stop-color:#3498db;stop-opacity:1;"
         offset="0"
         id="stop23917" />
      <stop
         style="stop-color:#59abe2;stop-opacity:1"
         offset="1"
         id="stop23919" />
    </linearGradient>
    <linearGradient
       inkscape:collect="always"
       id="linearGradient23879">
      <stop
         style="stop-color:#60c9f8;stop-opacity:1"
         offset="0"
         id="stop23881" />
      <stop
         id="stop23887"
         offset="0.34220833"
         style="stop-color:#8c79bf;stop-opacity:1" />
      <stop
         style="stop-color:#fb1c17;stop-opacity:1"
         offset="1"
         id="stop23883" />
    </linearGradient>
    <clipPath
       id="clipPath23754"
       clipPathUnits="userSpaceOnUse">
      <path
         id="path23756"
         d="M 0,0 174,0 174,174 0,174 0,0 z"
         inkscape:connector-curvature="0" />
    </clipPath>
    <clipPath
       id="clipPath23748"
       clipPathUnits="userSpaceOnUse">
      <path
         id="path23750"
         clip-rule="evenodd"
         d="M 55.00016,144 C 41.19295,144 30,132.8095 30,118.9998 L 30,55.00016 C 30,41.19295 41.19051,30 55.00016,30 l 63.99964,0 C 132.807,30 144,41.19051 144,55.00016 l 0,63.99964 C 144,132.807 132.8095,144 118.9998,144 l -63.99964,0 z"
         inkscape:connector-curvature="0" />
    </clipPath>
    <clipPath
       id="clipPath23736"
       clipPathUnits="userSpaceOnUse">
      <path
         id="path23738"
         d="M 0,0 174,0 174,174 0,174 0,0 z"
         inkscape:connector-curvature="0" />
    </clipPath>
    <clipPath
       id="clipPath23730"
       clipPathUnits="userSpaceOnUse">
      <path
         id="path23732"
         clip-rule="evenodd"
         d="m 86,38 c 27.062,0 49,21.93805 49,49 0,27.062 -21.938,49 -49,49 C 58.93805,136 37,114.062 37,87 37,59.93805 58.93805,38 86,38 z"
         inkscape:connector-curvature="0" />
    </clipPath>
    <clipPath
       id="clipPath23718"
       clipPathUnits="userSpaceOnUse">
      <path
         id="path23720"
         d="M 0,0 174,0 174,174 0,174 0,0 z"
         inkscape:connector-curvature="0" />
    </clipPath>
    <clipPath
       id="clipPath23712"
       clipPathUnits="userSpaceOnUse">
      <path
         id="path23714"
         clip-rule="evenodd"
         d="m 87,57 c 16.5685,0 30,13.43146 30,30 0,16.5685 -13.4315,30 -30,30 C 70.43146,117 57,103.5685 57,87 57,70.43146 70.43146,57 87,57 z"
         inkscape:connector-curvature="0" />
    </clipPath>
    <clipPath
       id="clipPath23700"
       clipPathUnits="userSpaceOnUse">
      <path
         id="path23702"
         d="M 0,0 174,0 174,174 0,174 0,0 z"
         inkscape:connector-curvature="0" />
    </clipPath>
    <clipPath
       id="clipPath23694"
       clipPathUnits="userSpaceOnUse">
      <path
         id="path23696"
         clip-rule="evenodd"
         d="M 86.5,67 C 97.82184,67 107,76.17816 107,87.5 107,98.82184 97.82184,108 86.5,108 75.17816,108 66,98.82184 66,87.5 66,76.17816 75.17816,67 86.5,67 z"
         inkscape:connector-curvature="0" />
    </clipPath>
    <clipPath
       id="clipPath23670"
       clipPathUnits="userSpaceOnUse">
      <path
         id="path23672"
         d="M 0,0 174,0 174,174 0,174 0,0 z"
         inkscape:connector-curvature="0" />
    </clipPath>
    <clipPath
       id="clipPath23658"
       clipPathUnits="userSpaceOnUse">
      <path
         id="path23660"
         d="M 0,0 174,0 174,174 0,174 0,0 z"
         inkscape:connector-curvature="0" />
    </clipPath>
    <clipPath
       id="clipPath23652"
       clipPathUnits="userSpaceOnUse">
      <path
         id="path23654"
         clip-rule="evenodd"
         d="m 37,137 0,-100 100,0 0,100 -100,0 z"
         inkscape:connector-curvature="0" />
    </clipPath>
    <clipPath
       id="clipPath23640"
       clipPathUnits="userSpaceOnUse">
      <path
         id="path23642"
         d="M 0,0 174,0 174,174 0,174 0,0 z"
         inkscape:connector-curvature="0" />
    </clipPath>
    <clipPath
       id="clipPath23634"
       clipPathUnits="userSpaceOnUse">
      <path
         id="path23636"
         clip-rule="evenodd"
         d="m 66,109 0,-43 43,0 0,43 -43,0 z"
         inkscape:connector-curvature="0" />
    </clipPath>
    <linearGradient
       inkscape:collect="always"
       xlink:href="#linearGradient23879"
       id="linearGradient23885"
       x1="68.131378"
       y1="932.36218"
       x2="68.131378"
       y2="1132.8622"
       gradientUnits="userSpaceOnUse" />
    <linearGradient
       inkscape:collect="always"
       xlink:href="#linearGradient23915"
       id="linearGradient23921"
       x1="215.36446"
       y1="1052.3622"
       x2="215.36446"
       y2="932.36218"
       gradientUnits="userSpaceOnUse"
       gradientTransform="translate(-310,0)" />
  </defs>
  <sodipodi:namedview
     id="base"
     pagecolor="#333333"
     bordercolor="#666666"
     borderopacity="1.0"
     inkscape:pageopacity="1"
     inkscape:pageshadow="2"
     inkscape:zoom="1.7319479"
     inkscape:cx="305.84721"
     inkscape:cy="72.815541"
     inkscape:document-units="px"
     inkscape:current-layer="layer1"
     showgrid="false"
     showborder="true"
     inkscape:snap-bbox="true"
     inkscape:bbox-paths="true"
     inkscape:bbox-nodes="true"
     inkscape:snap-bbox-edge-midpoints="true"
     inkscape:snap-bbox-midpoints="true"
     inkscape:snap-global="true"
     fit-margin-top="0"
     fit-margin-left="0"
     fit-margin-right="0"
     fit-margin-bottom="0"
     inkscape:window-width="1781"
     inkscape:window-height="1185"
     inkscape:window-x="1321"
     inkscape:window-y="13"
     inkscape:window-maximized="0" />
  <metadata
     id="metadata23075">
    <rdf:RDF>
      <cc:Work
         rdf:about="">
        <dc:format>image/svg+xml</dc:format>
        <dc:type
           rdf:resource="http://purl.org/dc/dcmitype/StillImage" />
        <dc:title></dc:title>
      </cc:Work>
    </rdf:RDF>
  </metadata>
  <g
     inkscape:label="Layer 1"
     inkscape:groupmode="layer"
     id="layer1"
     transform="translate(170,-932.36218)">
    <rect
       ry="0"
       rx="0"
       style="color:#000000;fill:url(#linearGradient23921);fill-opacity:1;fill-rule:nonzero;stroke:none;stroke-width:1;marker:none;visibility:visible;display:inline;overflow:visible;enable-background:accumulate"
       id="rect23891"
       width="120"
       height="120"
       x="-170"
       y="932.36218"
       inkscape:export-filename="/tmp/ios-icon-80.png"
       inkscape:export-xdpi="60"
       inkscape:export-ydpi="60" />
    <path
       inkscape:export-ydpi="60"
       inkscape:export-xdpi="60"
       inkscape:export-filename="/tmp/ios-icon-80.png"
       inkscape:connector-curvature="0"
       d="m -76.59691,965.08522 -66.80618,0 m 0,0 0,51.94008 c 0,9.305 4.66612,13.9563 14.0004,13.9563 l 39.37914,0 c 1.34467,-0.063 2.55946,-0.1922 3.70904,-0.4468 0.44593,-0.063 0.83148,-0.1899 1.27982,-0.2524 4.02733,-1.2132 6.58437,-3.7623 7.73414,-7.7793 0.44816,-1.5904 0.63861,-3.4404 0.70364,-5.4778 l 0,-51.94008 m -47.49863,11.28218 c 0.19045,3.63029 1.59551,6.75586 4.21777,9.36745 2.87757,2.86628 6.33131,4.33414 10.35863,4.33414 4.02491,0 7.41362,-1.46786 10.22615,-4.33414 2.68488,-2.61159 4.15516,-5.73716 4.34784,-9.36745 m 18.34824,-11.28218 -10.03812,-11.34237 -46.66715,0 -10.10091,11.34237"
       style="fill:none;stroke:#ffffff;stroke-width:3;stroke-linecap:round;stroke-linejoin:round;stroke-miterlimit:10;stroke-opacity:1;stroke-dasharray:none"
       id="path23893"
       sodipodi:nodetypes="cccssccccccccscccccc" />
  </g>
</svg>
